<svg width="34" height="325" viewBox="0 0 34 325" fill="none" xmlns="http://www.w3.org/2000/svg">
    <path opacity="0.75" d="M33 1H7.4C3.86538 1 1 3.86538 1 7.4V26.6C1 30.1346 3.86538 33 7.4 33H33" stroke="#D9D9D9"
        stroke-width="2" />
    <path opacity="0.75"
        d="M0.999999 147L1 172.6C1 176.135 3.86538 179 7.4 179L26.6 179C30.1346 179 33 176.135 33 172.6L33 147"
        stroke="#D9D9D9" stroke-width="2" />
    <path opacity="0.75"
        d="M33 252L33 226.4C33 222.865 30.1346 220 26.6 220L7.4 220C3.86537 220 0.999995 222.865 0.999994 226.4L0.999993 252"
        stroke="#D9D9D9" stroke-width="2" />
    <path opacity="0.75"
        d="M26.6 74H7.4C3.86538 74 1 76.8654 1 80.4V99.6C1 103.135 3.86538 106 7.4 106H26.6C30.1346 106 33 103.135 33 99.6V80.4C33 76.8654 30.1346 74 26.6 74Z"
        stroke="#D9D9D9" stroke-width="2" />
    <g opacity="0.75">
        <path d="M17 293V325" stroke="#D9D9D9" stroke-width="2" />
        <path d="M33 309L0.999995 309" stroke="#D9D9D9" stroke-width="2" />
    </g>
</svg>
